<?xml version="1.0" standalone="no"?>
<!DOCTYPE svg PUBLIC "-//W3C//DTD SVG 20010904//EN"
 "http://www.w3.org/TR/2001/REC-SVG-20010904/DTD/svg10.dtd">
<svg version="1.0" xmlns="http://www.w3.org/2000/svg"
 width="500.000000pt" height="500.000000pt" viewBox="0 0 500.000000 500.000000"
 preserveAspectRatio="xMidYMid meet">

<g transform="translate(0.000000,500.000000) scale(0.100000,-0.100000)"
fill="#000000" stroke="none">
<path d="M0 2500 l0 -2500 2500 0 2500 0 0 2500 0 2500 -2500 0 -2500 0 0
-2500z m2798 1640 c514 -93 949 -421 1187 -895 114 -228 164 -427 172 -685 16
-478 -161 -910 -511 -1248 -63 -61 -96 -100 -96 -115 -1 -12 -11 11 -24 50
-13 40 -39 96 -57 124 l-32 51 39 34 c21 18 42 33 47 34 4 0 28 28 53 63 30
40 61 69 87 82 77 38 104 106 65 165 -23 34 -23 36 -9 100 17 78 17 85 2 230
-10 104 -16 124 -56 205 -43 85 -158 235 -187 243 -7 2 -54 24 -103 48 -113
54 -195 68 -327 54 -182 -19 -278 -63 -389 -177 -42 -43 -98 -109 -124 -147
-42 -61 -48 -75 -47 -118 0 -27 -10 -78 -24 -120 -34 -101 -31 -139 14 -217
l37 -64 -27 -28 c-48 -48 -31 -141 32 -174 36 -18 74 -20 67 -2 -20 53 -12 51
19 -6 21 -39 60 -88 91 -117 67 -61 195 -126 288 -145 l70 -15 -60 6 c-33 3
-94 17 -135 30 -88 30 -80 35 -141 -91 -40 -83 -69 -211 -69 -306 0 -26 -4
-50 -8 -53 -4 -2 -25 69 -45 158 -21 90 -73 286 -116 436 l-79 274 -78 18
c-44 10 -114 30 -156 44 -73 24 -78 27 -78 54 0 25 7 32 54 53 32 15 66 41 86
66 26 32 46 45 89 58 31 9 59 20 64 23 4 3 -9 27 -29 53 -20 25 -33 50 -30 55
3 6 33 13 66 17 33 4 60 10 60 14 0 4 -11 35 -24 68 -25 63 -24 73 3 73 22 0
161 67 161 77 0 4 -32 26 -70 47 -39 22 -80 50 -91 63 l-22 22 24 9 c13 5 51
19 84 31 63 23 205 100 205 111 0 3 -52 28 -115 54 -64 27 -115 51 -113 55 2
4 51 52 111 107 59 54 102 101 96 103 -5 1 -71 13 -145 25 l-134 22 85 144
c46 80 81 146 77 147 -4 2 -67 -19 -140 -46 -73 -27 -134 -46 -136 -42 -14 24
-29 144 -30 238 -1 70 -5 113 -11 113 -28 0 -149 -83 -218 -151 l-78 -76 -69
91 c-37 50 -86 108 -108 130 -46 44 -46 43 -57 -59 -7 -65 -26 -140 -50 -198
l-15 -36 -44 25 c-55 30 -136 59 -193 69 l-43 7 35 -74 c34 -73 65 -192 52
-204 -6 -6 -87 -15 -257 -28 -36 -3 -74 -5 -85 -5 -15 -1 -1 -19 57 -78 72
-74 138 -163 138 -188 0 -6 -57 -51 -127 -100 l-127 -89 55 -11 c96 -20 178
-67 214 -121 16 -24 15 -25 -65 -106 -44 -45 -80 -84 -80 -88 0 -3 47 -21 105
-40 58 -19 105 -34 105 -34 -5 -13 -48 -191 -47 -192 1 -1 38 2 82 6 44 4 83
6 87 4 3 -2 10 -34 13 -69 8 -72 10 -73 78 -38 l27 14 -24 32 c-14 18 -37 58
-51 89 -28 61 -76 237 -74 272 1 11 5 1 11 -24 18 -87 60 -215 89 -272 42 -84
81 -122 154 -154 56 -24 65 -32 65 -54 0 -24 -9 -28 -167 -81 l-168 -55 -72
-250 c-77 -266 -82 -283 -77 -243 2 20 -7 36 -38 65 -89 87 -208 255 -279 395
-114 226 -167 436 -176 699 -21 609 293 1171 832 1488 192 113 452 194 695
216 91 8 321 -5 428 -24z m-988 -1213 c52 -27 80 -75 80 -137 0 -66 -7 -72
-67 -61 -54 11 -149 9 -195 -4 -24 -6 -29 -3 -39 21 -25 67 14 153 85 185 54
25 84 24 136 -4z m400 -71 c58 -30 80 -56 74 -85 -14 -63 -11 -60 -58 -46 -47
14 -125 24 -198 25 -42 0 -48 3 -54 25 -8 32 1 69 23 90 23 23 162 17 213 -9z
m-713 -358 c-3 -8 -6 -5 -6 6 -1 11 2 17 5 13 3 -3 4 -12 1 -19z m1536 -377
c81 -97 38 -254 -85 -305 -129 -54 -288 41 -288 172 l0 39 83 6 c150 11 247
50 247 99 0 26 15 22 43 -11z m211 4 c4 -14 16 -31 29 -39 35 -24 140 -47 225
-51 l77 -3 3 -33 c4 -48 -35 -118 -84 -152 -93 -65 -240 -38 -301 54 -39 59
-39 135 0 202 31 53 42 58 51 22z m-1013 -412 c50 -89 139 -290 139 -317 0
-10 -30 -47 -67 -83 l-68 -64 78 -73 c42 -40 77 -75 77 -78 0 -5 -57 43 -134
114 l-41 37 72 68 c69 64 72 70 64 98 -25 85 -127 300 -183 385 -24 36 -25 39
-5 16 14 -16 44 -63 68 -103z m-485 50 c-14 -26 -25 -45 -26 -41 0 12 43 98
48 94 2 -2 -8 -26 -22 -53z m57 -160 c-4 -76 -9 -120 -11 -98 -5 48 8 248 15
241 3 -2 1 -67 -4 -143z m324 105 c-3 -8 -6 -5 -6 6 -1 11 2 17 5 13 3 -3 4
-12 1 -19z m-416 -21 c-10 -9 -11 -8 -5 6 3 10 9 15 12 12 3 -3 0 -11 -7 -18z
m-42 -116 c-6 -18 -13 -30 -15 -28 -2 2 1 18 7 36 6 18 13 30 15 28 2 -2 -1
-18 -7 -36z m478 -3 c-3 -8 -6 -5 -6 6 -1 11 2 17 5 13 3 -3 4 -12 1 -19z m0
-50 c-3 -8 -6 -5 -6 6 -1 11 2 17 5 13 3 -3 4 -12 1 -19z m-508 -27 c-6 -18
-13 -30 -15 -28 -2 2 1 18 7 36 6 18 13 30 15 28 2 -2 -1 -18 -7 -36z m518
-33 c-3 -7 -5 -2 -5 12 0 14 2 19 5 13 2 -7 2 -19 0 -25z m0 -50 c-3 -7 -5 -2
-5 12 0 14 2 19 5 13 2 -7 2 -19 0 -25z m-475 -92 c69 -63 70 -65 54 -87 -9
-13 -16 -19 -16 -13 0 5 5 15 11 21 8 8 -8 29 -60 78 -48 46 -71 74 -70 89 2
20 2 20 6 -1 2 -13 36 -52 75 -87z m1411 27 c-7 -2 -19 -2 -25 0 -7 3 -2 5 12
5 14 0 19 -2 13 -5z"/>
</g>
</svg>
